<mxfile host="app.diagrams.net" modified="2023-11-03T15:10:59.492Z" agent="Mozilla/5.0 (Windows NT 10.0; Win64; x64; rv:109.0) Gecko/20100101 Firefox/119.0" etag="p9ANlGzoxpj34sO3Sz_7" version="22.0.8" type="device">
  <diagram name="Seite-1" id="7rz2UVXVOweU8v-UY6H-">
    <mxGraphModel dx="928" dy="526" grid="1" gridSize="10" guides="1" tooltips="1" connect="1" arrows="1" fold="1" page="1" pageScale="1" pageWidth="827" pageHeight="1169" math="0" shadow="0">
      <root>
        <mxCell id="0" />
        <mxCell id="1" parent="0" />
        <mxCell id="xT7IIbclC_VZYIc5Xs_e-63" style="edgeStyle=orthogonalEdgeStyle;rounded=0;orthogonalLoop=1;jettySize=auto;html=1;exitX=1;exitY=0.5;exitDx=0;exitDy=0;entryX=0.44;entryY=-0.011;entryDx=0;entryDy=0;entryPerimeter=0;" edge="1" parent="1">
          <mxGeometry relative="1" as="geometry">
            <mxPoint x="539.9800000000001" y="404.01" as="targetPoint" />
            <mxPoint x="309.58" y="280" as="sourcePoint" />
          </mxGeometry>
        </mxCell>
        <mxCell id="xT7IIbclC_VZYIc5Xs_e-25" value="&lt;p style=&quot;margin:0px;margin-top:4px;text-align:center;text-decoration:underline;&quot;&gt;&lt;b&gt;playerBob : Player&lt;/b&gt;&lt;/p&gt;&lt;hr&gt;&lt;p style=&quot;margin:0px;margin-left:8px;&quot;&gt;name = &quot;Bob&quot;&lt;/p&gt;&lt;p style=&quot;margin:0px;margin-left:8px;&quot;&gt;score = 140&lt;br&gt;winner = true&lt;br&gt;&lt;br&gt;&lt;/p&gt;" style="verticalAlign=top;align=left;overflow=fill;fontSize=12;fontFamily=Helvetica;html=1;whiteSpace=wrap;" vertex="1" parent="1">
          <mxGeometry x="150" y="190" width="160" height="90" as="geometry" />
        </mxCell>
        <mxCell id="xT7IIbclC_VZYIc5Xs_e-39" style="edgeStyle=orthogonalEdgeStyle;rounded=0;orthogonalLoop=1;jettySize=auto;html=1;exitX=1;exitY=0.5;exitDx=0;exitDy=0;entryX=0;entryY=0.5;entryDx=0;entryDy=0;endArrow=none;endFill=0;" edge="1" parent="1" source="xT7IIbclC_VZYIc5Xs_e-28" target="xT7IIbclC_VZYIc5Xs_e-34">
          <mxGeometry relative="1" as="geometry" />
        </mxCell>
        <mxCell id="xT7IIbclC_VZYIc5Xs_e-28" value="&lt;p style=&quot;margin:0px;margin-top:4px;text-align:center;text-decoration:underline;&quot;&gt;&lt;b&gt;f1:Field&lt;/b&gt;&lt;/p&gt;&lt;hr&gt;&lt;p style=&quot;margin:0px;margin-left:8px;&quot;&gt;coordinate = &quot;f1&quot;&lt;br&gt;&lt;/p&gt;" style="verticalAlign=top;align=left;overflow=fill;fontSize=12;fontFamily=Helvetica;html=1;whiteSpace=wrap;" vertex="1" parent="1">
          <mxGeometry x="50" y="540" width="160" height="90" as="geometry" />
        </mxCell>
        <mxCell id="xT7IIbclC_VZYIc5Xs_e-33" value="&lt;p style=&quot;margin:0px;margin-top:4px;text-align:center;text-decoration:underline;&quot;&gt;&lt;b&gt;playerAlice : Player&lt;/b&gt;&lt;/p&gt;&lt;hr&gt;&lt;p style=&quot;margin:0px;margin-left:8px;&quot;&gt;name = &quot;Alice&quot;&lt;/p&gt;&lt;p style=&quot;margin:0px;margin-left:8px;&quot;&gt;score = 250&lt;br&gt;winner = false&lt;br&gt;&lt;/p&gt;" style="verticalAlign=top;align=left;overflow=fill;fontSize=12;fontFamily=Helvetica;html=1;whiteSpace=wrap;" vertex="1" parent="1">
          <mxGeometry x="375" y="160" width="160" height="90" as="geometry" />
        </mxCell>
        <mxCell id="xT7IIbclC_VZYIc5Xs_e-40" style="edgeStyle=orthogonalEdgeStyle;rounded=0;orthogonalLoop=1;jettySize=auto;html=1;exitX=1;exitY=0.5;exitDx=0;exitDy=0;entryX=0;entryY=0.5;entryDx=0;entryDy=0;endArrow=none;endFill=0;" edge="1" parent="1" source="xT7IIbclC_VZYIc5Xs_e-34" target="xT7IIbclC_VZYIc5Xs_e-35">
          <mxGeometry relative="1" as="geometry" />
        </mxCell>
        <mxCell id="xT7IIbclC_VZYIc5Xs_e-34" value="&lt;p style=&quot;margin:0px;margin-top:4px;text-align:center;text-decoration:underline;&quot;&gt;&lt;b&gt;f2:Field&lt;/b&gt;&lt;/p&gt;&lt;hr&gt;&lt;p style=&quot;margin:0px;margin-left:8px;&quot;&gt;coordinate = &quot;f2&quot;&lt;br&gt;&lt;/p&gt;" style="verticalAlign=top;align=left;overflow=fill;fontSize=12;fontFamily=Helvetica;html=1;whiteSpace=wrap;" vertex="1" parent="1">
          <mxGeometry x="310" y="540" width="160" height="90" as="geometry" />
        </mxCell>
        <mxCell id="xT7IIbclC_VZYIc5Xs_e-35" value="&lt;p style=&quot;margin:0px;margin-top:4px;text-align:center;text-decoration:underline;&quot;&gt;&lt;b&gt;f3:Field&lt;/b&gt;&lt;/p&gt;&lt;hr&gt;&lt;p style=&quot;margin:0px;margin-left:8px;&quot;&gt;coordinate = &quot;f3&quot;&lt;br&gt;&lt;/p&gt;" style="verticalAlign=top;align=left;overflow=fill;fontSize=12;fontFamily=Helvetica;html=1;whiteSpace=wrap;" vertex="1" parent="1">
          <mxGeometry x="570" y="540" width="160" height="90" as="geometry" />
        </mxCell>
        <mxCell id="xT7IIbclC_VZYIc5Xs_e-41" value="right" style="text;html=1;align=center;verticalAlign=middle;resizable=0;points=[];autosize=1;strokeColor=none;fillColor=none;" vertex="1" parent="1">
          <mxGeometry x="260" y="555" width="50" height="30" as="geometry" />
        </mxCell>
        <mxCell id="xT7IIbclC_VZYIc5Xs_e-42" value="&lt;div&gt;left&lt;/div&gt;" style="text;html=1;align=center;verticalAlign=middle;resizable=0;points=[];autosize=1;strokeColor=none;fillColor=none;" vertex="1" parent="1">
          <mxGeometry x="210" y="585" width="40" height="30" as="geometry" />
        </mxCell>
        <mxCell id="xT7IIbclC_VZYIc5Xs_e-43" value="right" style="text;html=1;align=center;verticalAlign=middle;resizable=0;points=[];autosize=1;strokeColor=none;fillColor=none;" vertex="1" parent="1">
          <mxGeometry x="520" y="555" width="50" height="30" as="geometry" />
        </mxCell>
        <mxCell id="xT7IIbclC_VZYIc5Xs_e-44" value="&lt;div&gt;left&lt;/div&gt;" style="text;html=1;align=center;verticalAlign=middle;resizable=0;points=[];autosize=1;strokeColor=none;fillColor=none;" vertex="1" parent="1">
          <mxGeometry x="470" y="585" width="40" height="30" as="geometry" />
        </mxCell>
        <mxCell id="xT7IIbclC_VZYIc5Xs_e-47" style="edgeStyle=orthogonalEdgeStyle;rounded=0;orthogonalLoop=1;jettySize=auto;html=1;exitX=0.5;exitY=0;exitDx=0;exitDy=0;endArrow=none;endFill=0;" edge="1" parent="1" source="xT7IIbclC_VZYIc5Xs_e-46" target="xT7IIbclC_VZYIc5Xs_e-25">
          <mxGeometry relative="1" as="geometry" />
        </mxCell>
        <mxCell id="xT7IIbclC_VZYIc5Xs_e-46" value="&lt;p style=&quot;margin:0px;margin-top:4px;text-align:center;text-decoration:underline;&quot;&gt;&lt;b&gt;markerB : Marker&lt;/b&gt;&lt;/p&gt;&lt;hr&gt;&lt;p style=&quot;margin:0px;margin-left:8px;&quot;&gt;&lt;br&gt;&lt;/p&gt;" style="verticalAlign=top;align=left;overflow=fill;fontSize=12;fontFamily=Helvetica;html=1;whiteSpace=wrap;" vertex="1" parent="1">
          <mxGeometry x="70" y="360" width="160" height="90" as="geometry" />
        </mxCell>
        <mxCell id="xT7IIbclC_VZYIc5Xs_e-48" value="&lt;div&gt;belongs&lt;/div&gt;" style="text;html=1;align=center;verticalAlign=middle;resizable=0;points=[];autosize=1;strokeColor=none;fillColor=none;" vertex="1" parent="1">
          <mxGeometry x="180" y="280" width="70" height="30" as="geometry" />
        </mxCell>
        <mxCell id="xT7IIbclC_VZYIc5Xs_e-49" value="owns" style="text;html=1;align=center;verticalAlign=middle;resizable=0;points=[];autosize=1;strokeColor=none;fillColor=none;" vertex="1" parent="1">
          <mxGeometry x="150" y="330" width="50" height="30" as="geometry" />
        </mxCell>
        <mxCell id="xT7IIbclC_VZYIc5Xs_e-51" style="edgeStyle=orthogonalEdgeStyle;rounded=0;orthogonalLoop=1;jettySize=auto;html=1;exitX=0.5;exitY=0;exitDx=0;exitDy=0;entryX=0.75;entryY=1;entryDx=0;entryDy=0;endArrow=none;endFill=0;" edge="1" parent="1" source="xT7IIbclC_VZYIc5Xs_e-50" target="xT7IIbclC_VZYIc5Xs_e-25">
          <mxGeometry relative="1" as="geometry">
            <mxPoint x="280" y="320" as="targetPoint" />
          </mxGeometry>
        </mxCell>
        <mxCell id="xT7IIbclC_VZYIc5Xs_e-50" value="&lt;p style=&quot;margin:0px;margin-top:4px;text-align:center;text-decoration:underline;&quot;&gt;&lt;b&gt;markerB2 : Marker&lt;/b&gt;&lt;/p&gt;&lt;hr&gt;&lt;p style=&quot;margin:0px;margin-left:8px;&quot;&gt;&lt;br&gt;&lt;/p&gt;" style="verticalAlign=top;align=left;overflow=fill;fontSize=12;fontFamily=Helvetica;html=1;whiteSpace=wrap;" vertex="1" parent="1">
          <mxGeometry x="254" y="360" width="160" height="90" as="geometry" />
        </mxCell>
        <mxCell id="xT7IIbclC_VZYIc5Xs_e-52" value="&lt;div&gt;belongs&lt;/div&gt;" style="text;html=1;align=center;verticalAlign=middle;resizable=0;points=[];autosize=1;strokeColor=none;fillColor=none;" vertex="1" parent="1">
          <mxGeometry x="270" y="280" width="70" height="30" as="geometry" />
        </mxCell>
        <mxCell id="xT7IIbclC_VZYIc5Xs_e-53" value="owns" style="text;html=1;align=center;verticalAlign=middle;resizable=0;points=[];autosize=1;strokeColor=none;fillColor=none;" vertex="1" parent="1">
          <mxGeometry x="340" y="330" width="50" height="30" as="geometry" />
        </mxCell>
        <mxCell id="xT7IIbclC_VZYIc5Xs_e-54" style="edgeStyle=orthogonalEdgeStyle;rounded=0;orthogonalLoop=1;jettySize=auto;html=1;exitX=0.5;exitY=1;exitDx=0;exitDy=0;entryX=0.622;entryY=0.017;entryDx=0;entryDy=0;entryPerimeter=0;endArrow=none;endFill=0;" edge="1" parent="1" source="xT7IIbclC_VZYIc5Xs_e-46" target="xT7IIbclC_VZYIc5Xs_e-28">
          <mxGeometry relative="1" as="geometry" />
        </mxCell>
        <mxCell id="xT7IIbclC_VZYIc5Xs_e-55" value="&lt;div&gt;marks&lt;/div&gt;" style="text;html=1;align=center;verticalAlign=middle;resizable=0;points=[];autosize=1;strokeColor=none;fillColor=none;" vertex="1" parent="1">
          <mxGeometry x="140" y="510" width="60" height="30" as="geometry" />
        </mxCell>
        <mxCell id="xT7IIbclC_VZYIc5Xs_e-56" value="contains" style="text;html=1;align=center;verticalAlign=middle;resizable=0;points=[];autosize=1;strokeColor=none;fillColor=none;" vertex="1" parent="1">
          <mxGeometry x="150" y="448" width="70" height="30" as="geometry" />
        </mxCell>
        <mxCell id="xT7IIbclC_VZYIc5Xs_e-59" style="edgeStyle=orthogonalEdgeStyle;rounded=0;orthogonalLoop=1;jettySize=auto;html=1;exitX=0.75;exitY=1;exitDx=0;exitDy=0;entryX=0.403;entryY=-0.011;entryDx=0;entryDy=0;entryPerimeter=0;endArrow=none;endFill=0;" edge="1" parent="1" source="xT7IIbclC_VZYIc5Xs_e-50" target="xT7IIbclC_VZYIc5Xs_e-34">
          <mxGeometry relative="1" as="geometry" />
        </mxCell>
        <mxCell id="xT7IIbclC_VZYIc5Xs_e-60" value="contains" style="text;html=1;align=center;verticalAlign=middle;resizable=0;points=[];autosize=1;strokeColor=none;fillColor=none;" vertex="1" parent="1">
          <mxGeometry x="370" y="450" width="70" height="30" as="geometry" />
        </mxCell>
        <mxCell id="xT7IIbclC_VZYIc5Xs_e-61" value="&lt;div&gt;marks&lt;/div&gt;" style="text;html=1;align=center;verticalAlign=middle;resizable=0;points=[];autosize=1;strokeColor=none;fillColor=none;" vertex="1" parent="1">
          <mxGeometry x="375" y="510" width="60" height="30" as="geometry" />
        </mxCell>
        <mxCell id="xT7IIbclC_VZYIc5Xs_e-67" style="edgeStyle=orthogonalEdgeStyle;rounded=0;orthogonalLoop=1;jettySize=auto;html=1;entryX=0.695;entryY=-0.039;entryDx=0;entryDy=0;entryPerimeter=0;" edge="1" parent="1" source="xT7IIbclC_VZYIc5Xs_e-62" target="xT7IIbclC_VZYIc5Xs_e-35">
          <mxGeometry relative="1" as="geometry">
            <mxPoint x="680" y="405.0000000000001" as="targetPoint" />
          </mxGeometry>
        </mxCell>
        <mxCell id="xT7IIbclC_VZYIc5Xs_e-62" value="&lt;p style=&quot;margin:0px;margin-top:4px;text-align:center;text-decoration:underline;&quot;&gt;&lt;b&gt;markerB3 : Marker&lt;/b&gt;&lt;/p&gt;&lt;hr&gt;&lt;p style=&quot;margin:0px;margin-left:8px;&quot;&gt;&lt;br&gt;&lt;/p&gt;" style="verticalAlign=top;align=left;overflow=fill;fontSize=12;fontFamily=Helvetica;html=1;whiteSpace=wrap;" vertex="1" parent="1">
          <mxGeometry x="470" y="360" width="160" height="90" as="geometry" />
        </mxCell>
        <mxCell id="xT7IIbclC_VZYIc5Xs_e-65" value="&lt;div&gt;owns&lt;/div&gt;" style="text;html=1;align=center;verticalAlign=middle;resizable=0;points=[];autosize=1;strokeColor=none;fillColor=none;" vertex="1" parent="1">
          <mxGeometry x="535" y="328" width="50" height="30" as="geometry" />
        </mxCell>
        <mxCell id="xT7IIbclC_VZYIc5Xs_e-66" value="belongs" style="text;html=1;align=center;verticalAlign=middle;resizable=0;points=[];autosize=1;strokeColor=none;fillColor=none;" vertex="1" parent="1">
          <mxGeometry x="305" y="258" width="70" height="30" as="geometry" />
        </mxCell>
        <mxCell id="xT7IIbclC_VZYIc5Xs_e-68" value="contains" style="text;html=1;align=center;verticalAlign=middle;resizable=0;points=[];autosize=1;strokeColor=none;fillColor=none;" vertex="1" parent="1">
          <mxGeometry x="550" y="448" width="70" height="30" as="geometry" />
        </mxCell>
        <mxCell id="xT7IIbclC_VZYIc5Xs_e-69" value="&lt;div&gt;marks&lt;/div&gt;" style="text;html=1;align=center;verticalAlign=middle;resizable=0;points=[];autosize=1;strokeColor=none;fillColor=none;" vertex="1" parent="1">
          <mxGeometry x="680" y="510" width="60" height="30" as="geometry" />
        </mxCell>
      </root>
    </mxGraphModel>
  </diagram>
</mxfile>
